<?xml version="1.0" encoding="UTF-8" standalone="no" ?>
<!DOCTYPE svg PUBLIC "-//W3C//DTD SVG 1.1//EN" "http://www.w3.org/Graphics/SVG/1.1/DTD/svg11.dtd">
<svg xmlns="http://www.w3.org/2000/svg" xmlns:xlink="http://www.w3.org/1999/xlink" version="1.1" width="330" height="330" viewBox="0 0 330 330" xml:space="preserve">
<desc>Created with Fabric.js 1.7.22</desc>
<defs>
</defs>
<g id="icon" style="stroke: none; stroke-width: 1; stroke-dasharray: none; stroke-linecap: butt; stroke-linejoin: miter; stroke-miterlimit: 10; fill: none; fill-rule: nonzero; opacity: 1;" transform="translate(-1.8333333333333144 -1.8333333333333144) scale(3.67 3.67)" >
	<path d="M 87.313 70.351 c -1.383 1.917 -3.708 2.523 -5.289 2.132 c -0.836 -0.207 -1.878 -0.781 -2.108 -2.406 c -1.115 -6.08 -5.827 -9.646 -10.223 -10.331 c -0.006 -0.786 -0.05 -1.586 -0.175 -2.41 c -0.666 -4.372 -2.976 -8.724 -6.506 -12.258 C 55.73 37.464 35.11 23.184 15.169 9.376 C 12.33 7.409 9.493 5.445 6.728 3.524 C 4.457 1.848 2.246 2.292 1.061 3.476 c -1.184 1.183 -1.628 3.395 -0.002 5.593 C 13.913 28.89 32.522 55.543 42.652 65.415 c 3.158 3.158 6.972 5.333 10.87 6.239 c 0.52 9.144 8.004 15.925 17.844 15.925 C 81.989 87.578 90 80.544 90 71.218 v -4.593 L 87.313 70.351 z M 3.497 7.381 C 2.871 6.533 2.883 5.849 3.159 5.573 C 3.27 5.463 3.446 5.394 3.674 5.394 c 0.341 0 0.798 0.152 1.326 0.541 c 2.8 1.946 5.639 3.912 8.479 5.879 C 33.31 25.547 53.816 39.747 60.878 47.14 l 0.024 0.024 c 3.092 3.091 5.11 6.862 5.682 10.619 c 0.547 3.589 -0.306 6.718 -2.402 8.814 c -2.096 2.095 -5.227 2.948 -8.814 2.402 c -3.757 -0.573 -7.528 -2.59 -10.633 -5.696 C 35.407 54.212 17.328 28.703 3.497 7.381 z M 71.366 84.611 c -7.985 0 -14.127 -5.288 -14.854 -12.52 c 0.316 0.018 0.632 0.037 0.942 0.037 c 3.502 0 6.576 -1.182 8.827 -3.433 c 1.617 -1.616 2.664 -3.666 3.136 -5.985 c 2.968 0.567 6.696 3.071 7.572 7.842 c 0.342 2.428 1.958 4.226 4.324 4.811 c 1.73 0.428 3.597 0.17 5.243 -0.63 C 84.713 81.175 77.865 84.611 71.366 84.611 z" style="stroke:#ff6700; stroke-width: 3; stroke-dasharray: none; stroke-linecap: butt; stroke-linejoin: miter; stroke-miterlimit: 10; fill: rgb(0,0,0); fill-rule: nonzero; opacity: 1;" transform=" matrix(1 0 0 1 0 0) " stroke-linecap="round" fill="#ff6700" />
</g>
</svg>