<?xml version="1.0" ?><!DOCTYPE svg  PUBLIC '-//W3C//DTD SVG 20010904//EN'  'http://www.w3.org/TR/2001/REC-SVG-20010904/DTD/svg10.dtd'><svg height="256.000000pt" preserveAspectRatio="xMidYMid meet" version="1.0" viewBox="0 0 256.000000 256.000000" width="256.000000pt" xmlns="http://www.w3.org/2000/svg"><g fill="#ff6700" stroke="none" transform="translate(0.000000,256.000000) scale(0.100000,-0.100000)"><path d="M1013 2467 c-35 -19 -110 -113 -123 -153 -15 -46 -6 -116 20 -158 10 -17 122 -133 247 -258 l228 -227 -450 -453 c-520 -524 -778 -798 -818 -868 -38 -65 -46 -150 -20 -200 38 -74 139 -89 244 -37 114 56 766 673 1216 1151 l122 128 188 -175 c277 -257 322 -295 381 -317 134 -51 238 6 229 126 -5 74 -36 127 -144 249 -218 245 -853 870 -1116 1099 -122 105 -155 120 -204 93z"/></g></svg>